:SAMPLES-PER-SECOND 30
:FULLY-SPECIFIED
:DEGREES
573
root  39.1175 37.7812 -1.77771 162.315 71.5707 167.475
RightUpLeg  -21.2936 -13.8024 -3.33721
RightLeg  6.56486 -25.3682 3.82067
RightFoot  -5.25637 -0.0670272 0.974732
RightToes  -4.65663e-010 0 -3.6325e-017
Spine  9.12013 -6.89267 -13.6896
Spine1  3.01509 -11.0675 14.0054
HEad  -3.09329 -3.84225 2.18624
LeftShoulder1  6.63657 -11.999 -36.7078
LeftArm  25.198 -41.9739 -59.3132
LeftForeArm  57.5918 -61.2314 -14.9883
LeftHand  -0.244104 0.0205437 5.32207
RightShoulder  2.92408 5.88482 25.0313
RightArm  12.3167 -39.0305 34.7498
RightForeArm  9.51304 27.4272 5.40449
RightHand  -1.50915 4.45174 -17.945
LeftUpLeg  20.9583 4.64248 -6.19497
LeftLeg  16.1803 -4.15916 -1.6367
LeftFoot  -21.1033 0.60673 5.6478
LeftToes  -5.82109e-011 -4.83791e-012 -1.00937e-011
574
root  41.2187 37.479 -2.06062 167.928 71.4843 172.597
RightUpLeg  -24.3584 -22.9234 2.80195
RightLeg  13.9409 -19.7158 0.0265988
RightFoot  -1.33326 0.59046 -6.72831
RightToes  -4.65663e-010 0 -3.6325e-017
Spine  7.69817 -7.57426 -10.6452
Spine1  2.30164 -11.4029 14.046
HEad  -3.05177 -4.09002 0.695366
LeftShoulder1  6.61764 -11.825 -37.0542
LeftArm  24.7734 -42.5312 -59.5684
LeftForeArm  58.4692 -61.9105 -15.4102
LeftHand  -0.244104 0.0205437 5.32207
RightShoulder  2.60271 4.89001 24.8854
RightArm  4.98198 -40.5631 34.7954
RightForeArm  9.33354 25.4944 4.96905
RightHand  -1.39287 3.98293 -17.4023
LeftUpLeg  22.9814 6.35347 -2.26452
LeftLeg  17.9241 -6.19538 -2.02477
LeftFoot  -21.1232 0.32428 2.32545
LeftToes  -5.82109e-011 -4.83791e-012 -1.00937e-011
575
root  43.2588 37.1354 -2.34202 173.791 75.1402 178.676
RightUpLeg  -29.1353 -29.2477 11.177
RightLeg  22.4573 -8.76737 -4.66968
RightFoot  0.971207 1.46908 -13.6496
RightToes  -4.65663e-010 0 -3.6325e-017
Spine  7.19584 -6.66411 -5.91149
Spine1  1.01502 -9.83074 13.2539
HEad  -3.49658 -3.44278 -1.47448
LeftShoulder1  6.7543 -11.7201 -38.2069
LeftArm  22.1307 -40.0638 -57.9509
LeftForeArm  60.1678 -63.6814 -16.7007
LeftHand  -0.244104 0.0205437 5.32207
RightShoulder  2.62765 4.80133 25.5283
RightArm  -4.79295 -40.8887 34.4453
RightForeArm  5.77684 23.1275 4.70429
RightHand  -1.52586 4.30946 -18.3742
LeftUpLeg  23.8329 11.2847 3.63017
LeftLeg  23.7151 -9.7599 -4.38793
LeftFoot  -18.288 -0.0507351 -2.87588
LeftToes  -5.82109e-011 -4.83791e-012 -1.00937e-011
576
root  45.0805 36.8287 -2.42948 -179.039 79.4441 -173.561
RightUpLeg  -28.7112 -21.6417 11.5987
RightLeg  29.7337 -11.2465 -7.10848
RightFoot  -0.714125 1.51145 -16.145
RightToes  -4.65663e-010 0 -3.6325e-017
Spine  8.11898 -5.66043 -3.90136
Spine1  0.298153 -8.74947 14.6401
HEad  -4.86538 -0.962804 -3.04086
LeftShoulder1  6.90214 -11.5811 -39.5298
LeftArm  17.0041 -35.0151 -53.9984
LeftForeArm  63.1128 -66.5931 -19.2117
LeftHand  -0.244104 0.0205437 5.32207
RightShoulder  2.89494 5.41504 26.3922
RightArm  -14.639 -38.3188 34.6316
RightForeArm  -0.227373 20.4641 4.7239
RightHand  -1.81807 5.00596 -20.3772
LeftUpLeg  21.5142 14.8089 8.48428
LeftLeg  34.7787 -11.4531 -8.05736
LeftFoot  -9.84719 0.179434 -7.94052
LeftToes  -5.82109e-011 -4.83791e-012 -1.00937e-011
577
root  46.5647 36.599 -2.33395 -169.759 81.1347 -163.857
RightUpLeg  -27.7643 -18.9902 12.881
RightLeg  34.4897 -11.8969 -8.9035
RightFoot  -5.10914 0.820247 -15.5013
RightToes  -4.65663e-010 0 -3.6325e-017
Spine  9.55324 -6.02787 -4.44556
Spine1  0.62759 -9.52853 17.9655
HEad  -6.04872 1.94353 -3.06287
LeftShoulder1  7.14375 -11.6964 -40.703
LeftArm  11.7072 -28.4349 -48.9045
LeftForeArm  65.7155 -68.8122 -21.5314
LeftHand  -0.244104 0.0205437 5.32207
RightShoulder  3.05374 5.76067 26.9186
RightArm  -21.6583 -34.0966 36.3045
RightForeArm  -6.35972 19.6038 4.84188
RightHand  -2.07473 5.54 -22.0865
LeftUpLeg  14.7586 13.719 10.4862
LeftLeg  48.1423 -8.55674 -9.54975
LeftFoot  4.05176 1.57255 -11.6999
LeftToes  -5.82109e-011 -4.83791e-012 -1.00937e-011
578
root  47.8236 36.4559 -2.25931 -159.468 81.2593 -153.559
RightUpLeg  -26.7567 -18.7886 14.4327
RightLeg  37.124 -11.8074 -9.70617
RightFoot  -8.81358 0.258432 -14.4049
RightToes  -4.65663e-010 0 -3.6325e-017
Spine  10.4519 -7.09945 -3.91771
Spine1  1.42082 -10.6261 19.8774
HEad  -6.04734 3.56833 -1.77872
LeftShoulder1  7.47617 -12.0179 -41.8001
LeftArm  8.79568 -21.9316 -44.3717
LeftForeArm  65.6449 -68.3016 -20.949
LeftHand  -0.244104 0.0205437 5.32207
RightShoulder  2.95373 5.39797 27.1421
RightArm  -23.3802 -30.8762 38.94
RightForeArm  -8.92767 22.6483 5.35374
RightHand  -2.04825 5.45249 -21.9592
LeftUpLeg  5.85478 10.498 10.9112
LeftLeg  59.6972 -4.16679 -7.12112
LeftFoot  18.5747 3.43829 -13.3887
LeftToes  -5.82109e-011 -4.83791e-012 -1.00937e-011
579
root  49.1578 36.5486 -2.30835 -143.114 83.0783 -137.211
RightUpLeg  -24.5801 -17.3602 15.0407
RightLeg  37.9695 -11.0147 -9.37461
RightFoot  -10.776 -0.00421228 -13.8485
RightToes  -4.65663e-010 0 -3.6325e-017
Spine  10.2664 -7.16114 -1.94806
Spine1  2.36113 -10.1764 18.8922
HEad  -5.63742 4.34737 -0.249699
LeftShoulder1  7.72401 -12.1474 -42.9025
LeftArm  8.04897 -16.4235 -40.8034
LeftForeArm  63.4433 -65.2484 -17.8087
LeftHand  -0.244104 0.0205437 5.32207
RightShoulder  2.83571 4.98013 27.3894
RightArm  -20.4612 -29.4014 40.8972
RightForeArm  -4.40116 29.358 6.61397
RightHand  -1.61443 4.12397 -19.736
LeftUpLeg  -1.67276 9.24165 10.7467
LeftLeg  67.695 -1.65023 -3.8127
LeftFoot  26.8435 3.67789 -11.1156
LeftToes  -5.82109e-011 -4.83791e-012 -1.00937e-011
580
root  50.6361 36.9466 -2.3859 -98.4951 85.751 -92.3083
RightUpLeg  -20.4059 -13.8808 14.1058
RightLeg  36.8758 -9.89214 -8.16381
RightFoot  -11.9972 -0.15653 -13.2413
RightToes  -4.65663e-010 0 -3.6325e-017
Spine  9.50089 -6.05604 -0.758953
Spine1  3.49506 -8.6072 16.6544
HEad  -5.77629 5.75014 0.534278
LeftShoulder1  7.83504 -12.0212 -43.9273
LeftArm  7.27751 -11.1539 -37.659
LeftForeArm  61.4921 -61.8361 -15.07
LeftHand  -0.244104 0.0205437 5.32207
RightShoulder  2.9201 5.14876 27.7237
RightArm  -15.3947 -28.5452 41.4605
RightForeArm  6.61645 38.2312 8.44343
RightHand  -1.07226 1.91363 -17.1517
LeftUpLeg  -7.23218 10.384 9.64257
LeftLeg  72.2189 -0.696849 -1.52873
LeftFoot  25.7481 1.66967 -5.32157
LeftToes  -5.82109e-011 -4.83791e-012 -1.00937e-011
581
root  52.1121 37.4535 -2.43674 -31.2262 84.0323 -24.7776
RightUpLeg  -15.6824 -10.2362 12.4882
RightLeg  34.6216 -8.43389 -6.49076
RightFoot  -13.1255 -0.284792 -12.5446
RightToes  -4.65663e-010 0 -3.6325e-017
Spine  8.73802 -4.99399 -0.66705
Spine1  4.5863 -7.32178 14.815
HEad  -5.81754 8.00296 0.0965273
LeftShoulder1  7.90168 -11.8935 -44.7034
LeftArm  5.3829 -5.18905 -34.6401
LeftForeArm  60.3038 -59.6362 -13.6679
LeftHand  -0.244104 0.0205437 5.32207
RightShoulder  3.08702 5.57395 27.9931
RightArm  -10.2972 -27.4414 41.3713
RightForeArm  19.5812 47.6107 10.8749
RightHand  -0.731527 0.0323675 -15.7167
LeftUpLeg  -12.1051 11.4087 7.89833
LeftLeg  73.7701 0.309561 2.23756
LeftFoot  18.6503 -0.277207 0.583028
LeftToes  -5.82109e-011 -4.83791e-012 -1.00937e-011
582
root  53.5422 37.911 -2.50851 -12.5615 79.0471 -6.29395
RightUpLeg  -11.8376 -7.39789 10.8018
RightLeg  32.2368 -6.41557 -4.61289
RightFoot  -13.8685 -0.364766 -12.2381
RightToes  -4.65663e-010 0 -3.6325e-017
Spine  7.85186 -4.42215 -0.463618
Spine1  5.24194 -6.50007 13.0618
HEad  -5.27026 10.5788 -0.91096
LeftShoulder1  7.87597 -11.7406 -45.0168
LeftArm  3.21703 1.04211 -32.18
LeftForeArm  59.4334 -58.3135 -12.9357
LeftHand  -0.244104 0.0205437 5.32207
RightShoulder  3.15749 5.69748 28.3122
RightArm  -6.09226 -26.1741 41.2885
RightForeArm  29.143 56.0732 14.2624
RightHand  -0.596549 -0.786684 -15.0143
LeftUpLeg  -16.9857 11.3085 6.22207
LeftLeg  72.5899 1.92407 7.80284
LeftFoot  11.8748 -0.851268 3.73269
LeftToes  -5.82109e-011 -4.83791e-012 -1.00937e-011
583
root  54.9521 38.3455 -2.59705 -5.57501 73.5633 0.309082
RightUpLeg  -8.58916 -4.50594 8.87632
RightLeg  29.8344 -4.07138 -2.77971
RightFoot  -14.1233 -0.393533 -12.2326
RightToes  -4.65663e-010 0 -3.6325e-017
Spine  6.90544 -3.87069 -0.0825306
Spine1  5.58864 -5.63485 10.7965
HEad  -4.86506 13.5717 -1.60301
LeftShoulder1  7.66146 -11.3622 -44.8981
LeftArm  1.40878 6.49809 -30.6527
LeftForeArm  58.5567 -57.0854 -12.3058
LeftHand  -0.244104 0.0205437 5.32207
RightShoulder  3.16964 5.60298 28.8124
RightArm  -3.04598 -25.113 41.1467
RightForeArm  32.9567 62.9755 19.0858
RightHand  -0.524451 -1.13788 -14.2411
LeftUpLeg  -21.1355 10.8927 4.78742
LeftLeg  68.6642 3.92772 11.7767
LeftFoot  7.35604 -0.914782 5.27579
LeftToes  -5.82109e-011 -4.83791e-012 -1.00937e-011
584
root  56.3129 38.7242 -2.66009 -1.82458 67.8327 3.85449
RightUpLeg  -5.53529 -0.893157 6.8662
RightLeg  27.6114 -1.9941 -1.37533
RightFoot  -14.5079 -0.42846 -11.9288
RightToes  -4.65663e-010 0 -3.6325e-017
Spine  6.26317 -3.19949 -0.0943394
Spine1  5.91004 -4.768 8.80349
HEad  -5.36885 16.9241 -2.15688
LeftShoulder1  7.46247 -10.9544 -44.9672
LeftArm  -0.511562 10.9705 -29.6916
LeftForeArm  57.5564 -55.9335 -11.7646
LeftHand  -0.244104 0.0205437 5.32207
RightShoulder  3.18246 5.57962 29.0485
RightArm  -1.18899 -24.5283 41.0719
RightForeArm  33.6703 68.3349 25.6355
RightHand  -0.438666 -1.65928 -13.522
LeftUpLeg  -23.8053 10.1449 3.89264
LeftLeg  61.8565 5.61999 11.9098
LeftFoot  3.78602 -0.747147 5.39193
LeftToes  -5.82109e-011 -4.83791e-012 -1.00937e-011
585
root  57.6288 38.9505 -2.70519 -0.336487 62.5363 5.17737
RightUpLeg  -3.05378 2.87732 5.24449
RightLeg  26.1975 -0.242497 -0.367382
RightFoot  -15.3973 -0.500729 -11.1794
RightToes  -4.65663e-010 0 -3.6325e-017
Spine  5.92279 -2.62205 -0.247022
Spine1  6.14024 -4.18126 7.9603
HEad  -6.2079 19.9772 -3.08092
LeftShoulder1  7.58984 -10.942 -45.7986
LeftArm  -2.86836 14.8184 -28.7113
LeftForeArm  56.4933 -55.0829 -11.411
LeftHand  -0.244104 0.0205437 5.32207
RightShoulder  3.13479 5.55887 28.5908
RightArm  -0.362073 -24.4762 41.4328
RightForeArm  35.935 72.1816 33.2492
RightHand  -0.402447 -1.96287 -13.4483
LeftUpLeg  -25.0169 8.46993 4.15127
LeftLeg  52.2425 6.25132 9.0835
LeftFoot  1.36068 -0.287204 2.51019
LeftToes  -5.82109e-011 -4.83791e-012 -1.00937e-011
